<?xml version="1.0" standalone="no"?>
<!DOCTYPE svg PUBLIC "-//W3C//DTD SVG 20010904//EN"
 "http://www.w3.org/TR/2001/REC-SVG-20010904/DTD/svg10.dtd">
<svg version="1.0" xmlns="http://www.w3.org/2000/svg"
 width="300.000000pt" height="281.000000pt" viewBox="0 0 300.000000 281.000000"
 preserveAspectRatio="xMidYMid meet">
<metadata>
Created by potrace 1.10, written by Peter Selinger 2001-2011
</metadata>
<g transform="translate(0.000000,281.000000) scale(0.100000,-0.100000)"
fill="white" stroke="white">
<path d="M481 2454 c-18 -15 -31 -35 -31 -48 0 -29 55 -192 75 -223 18 -27 35
-30 35 -5 0 16 -38 175 -56 231 -7 22 -6 23 42 19 168 -16 337 -41 390 -58 46
-14 70 -17 100 -10 21 5 109 7 194 4 118 -5 180 -2 260 11 196 31 235 34 489
45 294 12 291 12 311 -70 10 -40 9 -64 -1 -116 -7 -35 -18 -69 -25 -75 -8 -6
-154 -12 -391 -15 -208 -2 -456 -9 -552 -14 -289 -16 -454 -13 -567 11 -142
31 -154 32 -154 22 0 -18 46 -33 195 -60 145 -27 160 -28 475 -27 303 1 479
10 675 34 93 12 338 2 360 -14 8 -6 47 -130 90 -286 96 -348 163 -578 264
-904 45 -142 81 -271 81 -287 0 -50 -66 -62 -105 -19 -9 10 -29 80 -46 161
-31 152 -42 189 -59 189 -18 0 -10 -92 19 -220 24 -104 27 -128 16 -145 -14
-23 -67 -32 -82 -13 -6 7 -48 190 -92 405 -45 216 -86 404 -91 418 -5 14 -16
25 -23 25 -11 0 -12 -11 -5 -57 19 -122 51 -288 105 -541 32 -156 52 -274 49
-288 -4 -16 -19 -30 -39 -39 -30 -12 -397 -49 -405 -40 -5 4 -74 342 -133 645
-49 254 -49 254 -60 215 -13 -45 14 -244 76 -551 30 -149 55 -283 55 -298 0
-35 -37 -53 -82 -40 l-33 10 -32 194 c-17 107 -32 209 -32 227 -1 35 -10 46
-29 34 -10 -6 -7 -53 12 -217 14 -115 23 -219 20 -232 -5 -18 -13 -22 -43 -22
-20 0 -42 4 -49 9 -8 5 -30 108 -57 268 -45 269 -57 310 -112 405 -38 64 -51
77 -64 57 -5 -8 -59 -164 -120 -347 -119 -357 -132 -382 -200 -396 -18 -3 -34
-5 -35 -3 -2 2 10 66 26 143 17 76 30 140 30 141 0 2 -7 3 -15 3 -8 0 -19 -17
-26 -42 -30 -113 -60 -192 -80 -214 -26 -28 -64 -30 -217 -13 -139 15 -145 17
-137 37 3 9 67 208 142 441 74 234 137 430 140 438 7 18 -27 29 -37 13 -13
-20 -102 -291 -165 -500 -30 -102 -72 -231 -91 -287 l-36 -103 -67 0 c-79 0
-126 20 -159 70 -18 27 -22 43 -18 71 5 33 159 524 185 592 6 16 9 33 5 38
-20 33 -54 -31 -100 -190 -93 -327 -148 -497 -164 -515 -24 -25 -59 -15 -110
30 -51 46 -57 79 -31 179 33 129 58 258 91 455 57 339 117 567 208 780 49 115
61 170 39 170 -9 0 -20 -16 -27 -37 -7 -21 -36 -99 -66 -173 -74 -189 -115
-339 -174 -637 -28 -142 -69 -343 -91 -446 -21 -103 -39 -204 -39 -223 0 -57
25 -93 85 -120 73 -34 318 -86 575 -123 319 -46 394 -41 454 30 35 41 39 50
147 374 71 210 96 275 108 273 26 -5 58 -135 96 -385 43 -285 41 -276 70 -303
22 -21 30 -22 100 -16 41 4 151 18 243 32 119 17 187 23 237 18 64 -5 82 -2
200 36 153 49 225 66 318 75 98 10 99 14 48 207 -22 85 -74 244 -115 354 -75
201 -121 354 -217 719 -71 273 -79 321 -72 440 5 82 3 106 -11 132 -37 73
-106 105 -206 96 -25 -2 -160 -10 -300 -18 -193 -11 -273 -19 -330 -35 -97
-27 -290 -36 -480 -22 -126 10 -223 27 -410 73 -65 16 -106 11 -139 -17z"/>
<path d="M1355 2020 c-3 -5 -4 -14 -1 -19 3 -5 10 -125 16 -267 14 -370 18
-411 44 -440 14 -17 25 -21 35 -15 11 7 12 15 2 42 -7 19 -16 106 -22 194 -9
167 -37 481 -44 503 -5 15 -21 16 -30 2z"/>
<path d="M2083 1198 c4 -100 13 -175 31 -249 33 -145 105 -369 117 -369 5 0
14 10 20 23 8 18 3 40 -26 112 -64 159 -87 262 -95 435 -7 163 -12 190 -37
190 -14 0 -15 -19 -10 -142z"/>
<path d="M945 723 c-32 -131 -60 -244 -63 -250 -2 -8 5 -13 19 -13 23 0 26 9
68 198 24 108 50 217 57 242 13 42 8 59 -16 60 -3 0 -32 -107 -65 -237z"/>
</g>
</svg>
