<?xml version="1.0" standalone="no"?>
<!DOCTYPE svg PUBLIC "-//W3C//DTD SVG 20010904//EN"
 "http://www.w3.org/TR/2001/REC-SVG-20010904/DTD/svg10.dtd">
<svg version="1.0" xmlns="http://www.w3.org/2000/svg"
 width="300.000000pt" height="309.000000pt" viewBox="0 0 300.000000 309.000000"
 preserveAspectRatio="xMidYMid meet">
<metadata>
Created by potrace 1.10, written by Peter Selinger 2001-2011
</metadata>
<g transform="translate(0.000000,309.000000) scale(0.100000,-0.100000)"
fill="white" stroke="none">
<path d="M582 2747 c-30 -34 -80 -111 -111 -172 -32 -60 -80 -153 -108 -205
-28 -52 -70 -131 -93 -175 -23 -44 -67 -126 -96 -181 -59 -112 -66 -150 -32
-181 13 -11 98 -57 190 -101 248 -119 261 -133 272 -282 4 -47 11 -121 16
-165 5 -44 16 -161 25 -260 9 -99 20 -225 25 -280 5 -55 12 -143 15 -195 9
-126 23 -209 43 -243 34 -57 87 -72 358 -97 234 -21 790 -32 884 -17 19 3 67
8 105 12 167 16 290 51 328 93 8 9 26 35 38 57 23 39 24 47 22 230 -1 105 -8
252 -14 329 -7 79 -9 200 -6 283 5 117 3 154 -10 194 -16 48 -16 50 7 74 13
14 34 25 47 25 34 0 127 90 258 251 57 69 130 205 140 260 10 52 -10 87 -105
186 -95 99 -266 284 -384 413 -95 105 -140 133 -193 118 -21 -6 -81 -42 -133
-80 -145 -106 -261 -163 -390 -193 -104 -24 -175 -19 -430 30 -226 44 -370
119 -542 281 -31 30 -60 54 -65 54 -4 0 -32 -29 -61 -63z m88 -26 c0 -9 15
-31 33 -47 41 -39 153 -124 163 -124 4 0 16 -7 26 -17 17 -15 18 -15 18 1 0
15 5 14 43 -5 23 -12 65 -30 92 -40 28 -10 50 -23 50 -31 0 -23 171 -51 419
-68 243 -17 285 -5 542 156 82 51 155 94 161 94 7 0 6 -24 -3 -75 -30 -170
-159 -270 -381 -293 -81 -9 -297 2 -345 16 -18 6 -62 18 -98 26 -101 23 -480
165 -500 186 -3 3 -39 23 -80 44 -88 45 -126 78 -142 122 -6 18 -15 31 -20 28
-11 -7 -10 -52 2 -75 9 -16 6 -24 -19 -45 -53 -44 -69 -167 -31 -229 20 -32
20 -32 0 -50 -30 -27 -26 -74 10 -115 33 -39 37 -58 15 -67 -29 -11 -45 -59
-45 -138 0 -76 13 -118 44 -144 20 -17 20 -45 1 -61 -22 -18 -19 -47 11 -97
20 -35 23 -47 14 -59 -18 -21 -27 -18 -83 30 -50 42 -144 94 -310 170 -51 23
-81 43 -88 59 -10 21 9 61 165 356 97 182 176 334 176 337 0 11 94 150 112
166 23 19 48 14 48 -11z m1722 -178 c55 -59 158 -169 228 -243 212 -226 220
-236 220 -278 0 -73 -76 -201 -204 -347 -85 -96 -118 -125 -180 -156 -48 -23
-46 -23 -46 1 0 10 -13 34 -29 52 -29 33 -29 33 -10 57 26 31 24 53 -6 84
l-26 25 27 39 c24 35 26 43 20 115 -6 83 -26 143 -53 164 -17 11 -16 15 5 53
25 44 23 68 -9 110 -15 18 -16 27 -8 44 15 26 6 115 -16 156 -11 21 -26 34
-46 38 -23 4 -28 10 -24 22 4 9 12 40 18 69 10 46 9 58 -6 84 -9 16 -15 34
-12 38 11 18 60 -22 157 -127z m-1702 -5 c99 -45 155 -70 255 -113 61 -26 135
-58 165 -72 119 -54 209 -86 315 -110 94 -22 134 -26 270 -26 236 -1 328 28
490 152 43 34 82 61 86 61 3 0 9 -26 12 -57 3 -32 9 -68 12 -79 5 -16 1 -23
-17 -28 -233 -65 -418 -96 -578 -96 -251 0 -904 103 -1030 163 -14 7 -32 26
-41 44 -14 27 -14 40 -3 105 7 40 13 74 14 76 0 2 3 1 8 -1 4 -2 23 -11 42
-19z m36 -288 c203 -52 447 -93 661 -111 188 -16 510 -5 673 22 69 11 142 23
163 26 20 3 40 9 43 14 13 21 43 8 49 -20 5 -24 -6 -68 -18 -72 -1 0 -65 -9
-142 -20 -272 -38 -563 -36 -1045 6 -96 9 -209 18 -250 21 -125 10 -183 35
-232 100 -45 60 -27 66 98 34z m119 -185 c166 -15 318 -28 520 -43 193 -14
548 -8 845 14 111 8 118 3 131 -101 6 -43 12 -82 15 -86 2 -4 0 -19 -6 -33 -9
-26 -48 -47 -151 -85 -154 -55 -159 -56 -420 -55 -136 1 -280 5 -320 8 -553
49 -563 50 -697 103 -78 32 -107 54 -132 104 -23 44 -25 77 -8 149 10 45 14
51 32 46 12 -3 98 -13 191 -21z m-100 -330 c164 -53 446 -98 695 -110 139 -6
485 -6 520 1 91 18 97 17 96 -8 -1 -20 -6 -23 -46 -25 -71 -4 -228 -20 -305
-32 -167 -26 -221 -30 -415 -27 -163 3 -226 8 -305 25 -131 29 -262 74 -292
103 -47 44 -72 118 -35 103 9 -4 49 -17 87 -30z m1609 -58 c14 -23 -3 -34 -64
-42 -25 -3 -78 -11 -118 -18 -39 -7 -77 -10 -82 -7 -25 15 5 36 78 54 42 10
84 22 92 27 24 14 82 6 94 -14z m-1464 -142 c194 -40 311 -55 422 -55 143 0
504 36 875 86 168 23 193 4 189 -138 -4 -108 -19 -122 -141 -142 -388 -64
-771 -71 -1170 -22 -279 35 -362 63 -400 136 -15 28 -22 170 -9 182 3 3 29 0
57 -8 29 -8 108 -25 177 -39z m1519 -232 c-2 -27 -15 -42 -28 -33 -12 7 -12
11 -2 24 14 17 32 21 30 9z m-1639 -45 c453 -92 1063 -101 1573 -22 33 6 37 4
37 -15 0 -12 -8 -24 -18 -27 -9 -3 -26 -10 -37 -14 -21 -9 -156 -30 -345 -55
-67 -9 -277 -20 -502 -26 -338 -9 -397 -8 -470 6 -145 27 -272 65 -291 89 -49
58 -49 57 -36 72 7 9 19 12 28 8 9 -3 36 -11 61 -16z m-61 -112 c9 -11 8 -15
-5 -20 -23 -9 -24 -8 -24 14 0 23 13 26 29 6z m1661 -36 c18 -18 20 -33 20
-185 0 -91 -2 -165 -4 -165 -2 0 -41 -7 -87 -16 -153 -29 -222 -35 -519 -46
-468 -17 -564 -15 -895 22 -114 13 -120 15 -145 50 -16 23 -22 55 -31 165 -14
180 -19 175 128 147 210 -40 268 -44 533 -39 273 6 533 20 691 37 103 11 227
35 237 44 12 13 53 5 72 -14z m40 -445 c0 -34 -40 -49 -175 -64 -60 -6 -146
-16 -190 -21 -44 -5 -140 -12 -213 -15 -74 -3 -164 -8 -200 -11 -106 -8 -510
-20 -587 -18 -218 7 -271 20 -305 77 -37 60 -30 68 53 61 39 -3 79 -8 87 -11
8 -3 128 -11 265 -19 316 -17 819 -1 1170 36 39 4 76 8 83 9 6 0 12 -10 12
-24z m-19 -125 c44 -24 4 -184 -57 -227 -46 -32 -91 -42 -229 -48 -71 -3 -166
-8 -210 -10 -364 -21 -974 10 -1065 54 -45 21 -69 64 -77 141 -6 63 -6 63 18
57 68 -19 419 -28 651 -18 229 11 304 15 643 41 282 21 302 22 326 10z"/>
</g>
</svg>
