<?xml version="1.0" standalone="no"?>
<!DOCTYPE svg PUBLIC "-//W3C//DTD SVG 20010904//EN"
 "http://www.w3.org/TR/2001/REC-SVG-20010904/DTD/svg10.dtd">
<svg version="1.0" xmlns="http://www.w3.org/2000/svg"
 width="300.000000pt" height="278.000000pt" viewBox="0 0 300.000000 278.000000"
 preserveAspectRatio="xMidYMid meet">
<metadata>
Created by potrace 1.10, written by Peter Selinger 2001-2011
</metadata>
<g transform="translate(0.000000,278.000000) scale(0.100000,-0.100000)"
fill="white" stroke="none">
<path d="M1080 2419 c-211 -253 -566 -871 -644 -1119 -15 -47 -31 -98 -36
-115 -5 -16 -12 -79 -15 -140 -8 -142 -4 -149 100 -187 l80 -28 43 47 c77 85
148 186 202 288 30 55 69 127 86 160 51 94 58 84 66 -95 8 -180 24 -366 38
-430 5 -25 9 -67 10 -93 0 -49 17 -94 43 -115 20 -17 203 -38 432 -51 246 -14
284 -14 378 4 86 16 132 36 146 63 10 19 54 292 73 452 13 117 17 593 5 683
-4 33 -3 57 2 57 15 0 145 -189 186 -269 41 -81 50 -107 71 -226 13 -71 13
-92 -2 -192 -19 -130 -15 -204 12 -234 43 -48 149 -68 196 -37 38 25 133 173
159 248 31 90 38 278 14 370 -32 123 -99 246 -259 474 -120 171 -308 352 -480
465 -100 65 -121 66 -185 6 -26 -24 -74 -56 -107 -71 -50 -22 -73 -26 -154
-26 -143 1 -224 34 -318 129 -60 60 -79 58 -142 -18z m145 -35 c26 -26 78 -60
114 -78 59 -27 78 -31 176 -34 139 -5 182 10 313 104 36 27 26 -2 -18 -50 -84
-91 -271 -147 -405 -121 -99 18 -171 60 -222 129 -42 57 -50 76 -36 89 14 14
31 6 78 -39z m-96 -43 c28 -54 112 -126 179 -153 82 -32 259 -32 352 0 85 30
156 79 204 142 21 27 41 50 45 50 11 0 75 -218 91 -310 5 -30 16 -93 24 -140
58 -326 44 -831 -34 -1175 -20 -92 -35 -115 -74 -115 -12 -1 -80 -5 -152 -9
-125 -8 -193 -6 -454 18 -226 21 -241 31 -270 172 -45 222 -59 504 -36 719 8
80 22 210 31 290 16 153 29 280 45 420 5 47 10 95 10 108 0 34 17 27 39 -17z
m903 -13 c92 -72 330 -319 410 -426 187 -247 248 -402 248 -626 0 -133 -17
-172 -94 -224 -98 -65 -122 -42 -175 169 -48 189 -62 232 -113 334 -34 68
-159 247 -206 295 -24 23 -39 70 -52 155 -10 71 -22 126 -49 230 -4 17 -18 52
-29 79 -12 27 -22 50 -22 52 0 15 36 -2 82 -38z m-985 -50 c-8 -59 -46 -371
-57 -473 -30 -274 -36 -307 -75 -375 -64 -111 -70 -123 -120 -215 -69 -129
-80 -142 -156 -191 -103 -66 -118 -61 -138 46 -7 36 -17 84 -22 107 -12 54
-12 109 0 131 6 9 70 141 145 293 117 242 236 459 270 495 6 6 40 57 76 112
36 56 69 102 74 102 4 0 6 -15 3 -32z m-584 -1195 c4 -64 2 -83 -8 -83 -18 0
-39 93 -30 138 15 82 30 61 38 -55z m1948 10 c6 -16 21 -42 35 -60 31 -41 30
-53 -5 -53 -33 0 -46 13 -54 56 -3 18 -9 43 -13 58 -9 37 23 35 37 -1z m229
-69 c0 -16 -45 -66 -70 -79 -30 -15 -72 -20 -83 -9 -10 10 4 34 22 34 9 1 39
14 66 30 51 30 65 35 65 24z m-2137 -61 c11 -11 34 -17 58 -17 45 2 47 -3 18
-35 -18 -19 -28 -22 -61 -17 -51 8 -85 31 -91 61 -4 22 -1 25 26 25 17 0 39
-8 50 -17z m1992 -63 c16 0 25 -6 25 -15 0 -11 -11 -15 -36 -15 -61 0 -122 39
-98 62 3 3 23 -3 44 -13 21 -11 51 -19 65 -19z m-1386 -261 c17 -6 31 -14 31
-19 0 -12 -48 1 -61 16 -14 17 -11 17 30 3z"/>
<path d="M1670 1793 c0 -5 7 -30 15 -57 8 -27 15 -64 15 -81 0 -44 25 -100 52
-119 32 -23 89 -20 128 7 40 26 64 65 82 130 11 42 10 51 -6 81 -10 19 -28 37
-40 40 -31 9 -246 7 -246 -1z m238 -45 c19 -19 14 -89 -11 -133 -17 -30 -31
-42 -59 -49 -59 -15 -81 6 -96 94 -7 40 -10 75 -7 78 18 18 157 26 173 10z"/>
</g>
</svg>
